# xmcd
#
# Track frame offsets:
#	150
#	19618
#	30334
#	45344
#	66560
#	88143
#	104483
#	127918
#	143148
#	160444
#	173771
#	180628
#	192032
#	201845
#	217207
#	234099
#	253094
#	268994
#	283164
#	302166
#	319952
#	336213
#
# Disc length: 4776
#
# Revision: 2
# Processed by: cddbd v1.5.1PL0 Copyright (c) Steve Scherf et al.
# Submitted via: EasyCDDAExtractor 7.0.5.4
# Normalized: r1:DSETVAR1
#
DISCID=4912a616
DTITLE=Various Artist - Gold saxophone vol.2
DYEAR=2003
DGENRE=Saxophone
TTITLE0=S. BLUE - ORFEO NEGRO
TTITLE1=THE GINO MARINELLO ORCHESTRA - ANGIE
TTITLE2=GEORGE SAXON - DELTA QUEEN
TTITLE3=F. POURCEL - NE ME GUITTE PAS
TTITLE4=GIL VENTURA - MOON FLOWER
TTITLE5=R. PAULS Orc. - feat. NINO ROTA
TTITLE6=I. VANSTEIN Orc. - LOVE STORY
TTITLE7=BRIAN SMITH - ANCHE UN UOMO
TTITLE8=DAVID SANBORN - THE SEDUCTION
TTITLE9=GEORGE CASTRATOS - ABRAZAME
TTITLE10=MAY GREGOR/JARRE - LARA'S THEME
TTITLE11=S. TAYLOR - SUMMERTIME
TTITLE12=H. STRASSER - PARISER TANGO
TTITLE13=P. OVSYANNIKOV Orc. and Chorus - SEA
TTITLE14=INCOGNITO SAX BAND - LOVE ME
TTITLE15=CANDY DUFLER - WICH YOU WERE HERE
TTITLE16=MAX GREGER - SOMETHING'S GOTTEN HOLD OF MY HEART
TTITLE17=BOOTS RANDOLPH - DEEP PURPLE
TTITLE18=GIL VENTURA - NON MI LASCIARE
TTITLE19=RON ASPREY - I WILL ALWAYS LOVE YOU
TTITLE20=MAX GREGER - MOONLIGHT SERENADE
TTITLE21=ERIC MARIENTAL - UNDERSTANDING
EXTD=
EXTT0=
EXTT1=
EXTT2=
EXTT3=
EXTT4=
EXTT5=
EXTT6=
EXTT7=
EXTT8=
EXTT9=
EXTT10=
EXTT11=
EXTT12=
EXTT13=
EXTT14=
EXTT15=
EXTT16=
EXTT17=
EXTT18=
EXTT19=
EXTT20=
EXTT21=
PLAYORDER=
